<svg version="1.2" xmlns="http://www.w3.org/2000/svg" viewBox="0 0 1570 1132" width="1570" height="1132">
	<title>Sustainability_Report_2021_2022-1-pdf-svg</title>
	<defs>
		<clipPath clipPathUnits="userSpaceOnUse" id="cp1">
			<path d="m-12622.22-637.36h14700.84v10398.5h-14700.84z"/>
		</clipPath>
	</defs>
	<style>
		.s0 { fill: #0061ad } 
		.s1 { fill: #ffe62c } 
	</style>
	<g id="Clip-Path: Page 1" clip-path="url(#cp1)">
		<g id="Page 1">
			<path id="Path 4" class="s0" d="m785.7 1131.5h424.3l203.4-637.3-424.3-1.8zm359.7-1129.8l-131.8 416.5 424.3-0.9 131.8-415.6z"/>
			<path id="Path 5" class="s1" d="m763 76.8h-347.4l-107.4 339.7h403.3l-24.4 75.9h-403.3l-179 563.2h324.8l70.7-222.7 16.6-53.2h56.7 137.1c199 0 367.5-158.9 375.3-354.5 7.9-186.8-133.5-339.6-323-348.4z"/>
			<path id="Path 6" fill-rule="evenodd" class="s0" d="m1162.9 427.8c-9.6 236.6-212.2 427-452.2 427-0.9 0-137.1 0-137.1 0l-87.3 276.7h-486.2l358.8-1130.6h405.9c231.3 9.6 407.7 197.3 398.1 426.9zm-76.9-2.6c7.9-186.8-133.5-339.6-323-348.4h-347.4l-107.4 339.7h403.3l-24.4 75.9h-403.3l-179 563.2h324.8l70.7-222.7 16.6-53.2h193.8c199 0 367.5-158.9 375.3-354.5z"/>
		</g>
	</g>
</svg>